<?xml version="1.0" encoding="UTF-8"?>
<svg width="53px" height="52px" viewBox="0 0 53 52" version="1.1" xmlns="http://www.w3.org/2000/svg" xmlns:xlink="http://www.w3.org/1999/xlink">
    <title>D749012E-30DA-4070-8CE4-F096F01F686C</title>
    <g id="Page-1" stroke="none" stroke-width="1" fill="none" fill-rule="evenodd">
        <g id="Gul" transform="translate(-334.000000, -329.000000)">
            <g id="components/buttons/icon" transform="translate(290.930233, 314.000000)">
                <g id="icon/man" transform="translate(43.534884, 15.000000)">
                    <g id="Group-23" transform="translate(12.796956, 7.109537)">
                        <path d="M25.8505,38.2605438 L0,38.2605438 L0,32.3406688 C0,30.2395438 1.703,28.5365438 3.8033125,28.5365438 L22.0471875,28.5365438 C24.1475,28.5365438 25.8505,30.2395438 25.8505,32.3406688 L25.8505,38.2605438 Z" id="Fill-1" fill="#FDAD36"></path>
                        <path d="M25.8505,38.2605438 L0,38.2605438 L0,32.3406688 C0,30.2395438 1.703,28.5365438 3.8033125,28.5365438 L22.0471875,28.5365438 C24.1475,28.5365438 25.8505,30.2395438 25.8505,32.3406688 L25.8505,38.2605438 Z" id="Stroke-3" stroke="#545454" stroke-width="1.215"></path>
                        <path d="M12.9358125,35.9762 L12.9358125,35.9762 C10.14325,35.9762 7.879625,33.712575 7.879625,30.9200125 L7.879625,24.0820125 L17.992,24.0820125 L17.992,30.9200125 C17.992,33.712575 15.728375,35.9762 12.9358125,35.9762" id="Fill-5" fill="#FFFFFF"></path>
                        <path d="M12.9358125,35.9762 L12.9358125,35.9762 C10.14325,35.9762 7.879625,33.712575 7.879625,30.9200125 L7.879625,24.0820125 L17.992,24.0820125 L17.992,30.9200125 C17.992,33.712575 15.728375,35.9762 12.9358125,35.9762 Z" id="Stroke-7" stroke="#545454" stroke-width="1.215"></path>
                        <path d="M13.18655,30.4434 L13.18655,30.4434 C8.0093,30.4434 3.8127375,26.2468375 3.8127375,21.0695875 L3.8127375,13.8789625 C3.8127375,8.7017125 8.0093,4.50515 13.18655,4.50515 C18.3638,4.50515 22.5603625,8.7017125 22.5603625,13.8789625 L22.5603625,21.0695875 C22.5603625,26.2468375 18.3638,30.4434 13.18655,30.4434" id="Fill-9" fill="#FFFFFF"></path>
                        <path d="M13.18655,30.4434 L13.18655,30.4434 C8.0093,30.4434 3.8127375,26.2468375 3.8127375,21.0695875 L3.8127375,13.8789625 C3.8127375,8.7017125 8.0093,4.50515 13.18655,4.50515 C18.3638,4.50515 22.5603625,8.7017125 22.5603625,13.8789625 L22.5603625,21.0695875 C22.5603625,26.2468375 18.3638,30.4434 13.18655,30.4434 Z" id="Stroke-13" stroke="#545454" stroke-width="1.215"></path>
                        <path d="M13.18655,30.4434 L13.18655,30.4434 C8.0093,30.4434 3.8127375,26.2468375 3.8127375,21.0695875 L3.8127375,13.8789625 C3.8127375,8.7017125 8.0093,4.50515 13.18655,4.50515 C18.3638,4.50515 22.5603625,8.7017125 22.5603625,13.8789625 L22.5603625,21.0695875 C22.5603625,26.2468375 18.3638,30.4434 13.18655,30.4434 Z" id="Stroke-15" stroke="#545454" stroke-width="1.215"></path>
                        <path d="M23.5411313,5.926375 C24.8468188,4.3671875 25.6520063,2.42775 25.6520063,0 L12.8088188,0 C7.61206875,0 2.79313125,3.1565625 1.48581875,7.8885625 C0.04688125,13.09425 2.13175625,16.6075 3.81281875,17.6873125 L3.81281875,13.879125 C3.81281875,13.2786875 3.87538125,12.6936875 3.98344375,12.12575 C8.24988125,12.0436875 15.7638813,11.422125 20.7282563,8.3256875 C21.8771313,9.8791875 22.5596313,11.7975 22.5596313,13.879125 L22.5596313,17.6873125 C24.3958813,16.508375 25.6520063,14.142375 25.6520063,11.4099375 C25.6520063,9.1975 24.8281313,7.2239375 23.5411313,5.926375" id="Fill-17" fill="#FFFFFF"></path>
                        <path d="M23.5411313,5.926375 C24.8468188,4.3671875 25.6520063,2.42775 25.6520063,0 L12.8088188,0 C7.61206875,0 2.79313125,3.1565625 1.48581875,7.8885625 C0.04688125,13.09425 2.13175625,16.6075 3.81281875,17.6873125 L3.81281875,13.879125 C3.81281875,13.2786875 3.87538125,12.6936875 3.98344375,12.12575 C8.24988125,12.0436875 15.7638813,11.422125 20.7282563,8.3256875 C21.8771313,9.8791875 22.5596313,11.7975 22.5596313,13.879125 L22.5596313,17.6873125 C24.3958813,16.508375 25.6520063,14.142375 25.6520063,11.4099375 C25.6520063,9.1975 24.8281313,7.2239375 23.5411313,5.926375 Z" id="Stroke-19" stroke="#545454" stroke-width="1.215"></path>
                        <path d="M10.2947812,22.5882313 C10.9992188,23.3438563 12.0010312,23.8183563 13.1149687,23.8183563 C14.2289062,23.8183563 15.2299062,23.3438563 15.9343437,22.5882313" id="Stroke-21" stroke="#545454" stroke-width="1.215" stroke-linecap="round"></path>
                    </g>
                </g>
            </g>
        </g>
    </g>
</svg>