<?xml version="1.0" encoding="UTF-8"?>
<svg width="53px" height="52px" viewBox="0 0 53 52" version="1.1" xmlns="http://www.w3.org/2000/svg" xmlns:xlink="http://www.w3.org/1999/xlink">
    <title>361E3E93-EF73-4E8C-9EDC-E17125DDE136</title>
    <g id="Page-1" stroke="none" stroke-width="1" fill="none" fill-rule="evenodd">
        <g id="Gul" transform="translate(-174.000000, -329.000000)">
            <g id="components/buttons/icon" transform="translate(131.000000, 314.000000)">
                <g id="icon/woman" transform="translate(43.534884, 15.000000)">
                    <g id="Group-23" transform="translate(13.609619, 7.109456)">
                        <path d="M25.8506625,38.6418498 L0.0001625,38.6418498 L0.0001625,32.7219748 C0.0001625,30.6208498 1.70235,28.9178498 3.803475,28.9178498 L22.0465375,28.9178498 C24.1476625,28.9178498 25.8506625,30.6208498 25.8506625,32.7219748 L25.8506625,38.6418498 Z" id="Fill-1" fill="#FDAD36"></path>
                        <path d="M25.8506625,38.6418498 L0.0001625,38.6418498 L0.0001625,32.7219748 C0.0001625,30.6208498 1.70235,28.9178498 3.803475,28.9178498 L22.0465375,28.9178498 C24.1476625,28.9178498 25.8506625,30.6208498 25.8506625,32.7219748 L25.8506625,38.6418498 Z" id="Stroke-3" stroke="#545454" stroke-width="1.215"></path>
                        <path d="M12.9358938,36.3575061 L12.9358938,36.3575061 C10.1433313,36.3575061 7.87970625,34.0938811 7.87970625,31.3013186 L7.87970625,24.4633186 L17.9920813,24.4633186 L17.9920813,31.3013186 C17.9920813,34.0938811 15.7284563,36.3575061 12.9358938,36.3575061" id="Fill-5" fill="#FFFFFF"></path>
                        <path d="M12.9358938,36.3575061 L12.9358938,36.3575061 C10.1433313,36.3575061 7.87970625,34.0938811 7.87970625,31.3013186 L7.87970625,24.4633186 L17.9920813,24.4633186 L17.9920813,31.3013186 C17.9920813,34.0938811 15.7284563,36.3575061 12.9358938,36.3575061 Z" id="Stroke-7" stroke="#545454" stroke-width="1.215" fill="#FFFFFF"></path>
                        <path d="M6.92030625,20.7771686 L6.92030625,13.5857311 C6.92030625,8.9853561 10.2377437,5.1666061 14.6098062,4.3719811 C14.0621812,4.2728561 13.5015562,4.2127311 12.9254937,4.2127311 C7.74824375,4.2127311 3.55168125,8.4092936 3.55168125,13.5857311 L3.55168125,20.7771686 C3.55168125,25.9544186 7.74824375,30.1509811 12.9254937,30.1509811 C13.5015562,30.1509811 14.0621812,30.0908561 14.6098062,29.9917311 C10.2377437,29.1971061 6.92030625,25.3783561 6.92030625,20.7771686" id="Fill-9" fill="#EAE9FF"></path>
                        <path d="M12.92525,30.1510623 L12.92525,30.1510623 C7.748,30.1510623 3.5514375,25.9544998 3.5514375,20.7772498 L3.5514375,13.5858123 C3.5514375,8.40937485 7.748,4.21281235 12.92525,4.21281235 C18.1025,4.21281235 22.2990625,8.40937485 22.2990625,13.5858123 L22.2990625,20.7772498 C22.2990625,25.9544998 18.1025,30.1510623 12.92525,30.1510623" id="Fill-11" fill="#FFFFFF"></path>
                        <path d="M12.92525,30.1510623 L12.92525,30.1510623 C7.748,30.1510623 3.5514375,25.9544998 3.5514375,20.7772498 L3.5514375,13.5858123 C3.5514375,8.40937485 7.748,4.21281235 12.92525,4.21281235 C18.1025,4.21281235 22.2990625,8.40937485 22.2990625,13.5858123 L22.2990625,20.7772498 C22.2990625,25.9544998 18.1025,30.1510623 12.92525,30.1510623 Z" id="Stroke-13" stroke="#545454" stroke-width="1.215" fill="#FFFFFF"></path>
                        <path d="M13.5500625,0.0147873498 C6.1270625,-0.33540015 0,5.57959985 0,12.9254123 L0,30.8247873 L0,33.5344748 C0,31.4333498 1.7021875,29.7303498 3.8033125,29.7303498 L7.82275,29.7303498 L7.82275,28.6383498 C5.2528125,26.9670373 3.5514375,24.0712873 3.5514375,20.7774123 L3.5514375,14.2595373 C3.5514375,13.9686623 3.566875,13.6802248 3.592875,13.3966623 C7.700875,13.1187873 9.8288125,10.7495373 10.918375,8.61997485 C11.8454375,13.1228498 16.2638125,17.8556623 22.2990625,18.3423498 L22.2990625,20.7774123 C22.2990625,24.0712873 20.5976875,26.9670373 18.02775,28.6383498 C18.02775,28.6992873 18.02775,29.6117248 18.02775,29.7303498 L22.0471875,29.7303498 C24.1475,29.7303498 25.8505,31.4333498 25.8505,33.5344748 L25.8505,30.9637248 L25.8505,13.2902248 C25.8505,6.33034985 20.5018125,0.34141235 13.5500625,0.0147873498" id="Fill-17" fill="#FFFFFF"></path>
                        <path d="M13.5500625,0.0147873498 C6.1270625,-0.33540015 0,5.57959985 0,12.9254123 L0,30.8247873 L0,33.5344748 C0,31.4333498 1.7021875,29.7303498 3.8033125,29.7303498 L7.82275,29.7303498 L7.82275,28.6383498 C5.2528125,26.9670373 3.5514375,24.0712873 3.5514375,20.7774123 L3.5514375,14.2595373 C3.5514375,13.9686623 3.566875,13.6802248 3.592875,13.3966623 C7.700875,13.1187873 11.83585,10.6821544 12.9254125,8.55259194 C14.6098062,11.3840434 16.0119375,12.4387248 22.0471875,12.9254123 L22.2990625,20.7774123 C22.2990625,24.0712873 20.5976875,26.9670373 18.02775,28.6383498 C18.02775,28.6992873 18.02775,29.6117248 18.02775,29.7303498 L22.0471875,29.7303498 C24.1475,29.7303498 25.8505,31.4333498 25.8505,33.5344748 L25.8505,30.9637248 L25.8505,13.2902248 C25.8505,6.33034985 20.5018125,0.34141235 13.5500625,0.0147873498 Z" id="Stroke-19" stroke="#545454" stroke-width="1.215"></path>
                        <path d="M10.1053062,23.7820373 C10.8097437,24.5376623 11.8107437,25.0121623 12.9254937,25.0121623 C14.0394312,25.0121623 15.0404312,24.5376623 15.7448687,23.7820373" id="Stroke-21" stroke="#545454" stroke-width="1.215" stroke-linecap="round"></path>
                    </g>
                </g>
            </g>
        </g>
    </g>
</svg>