<?xml version="1.0" encoding="UTF-8"?>
<svg width="983px" height="478px" viewBox="0 0 983 478" version="1.1" xmlns="http://www.w3.org/2000/svg" xmlns:xlink="http://www.w3.org/1999/xlink">
    <title>8A1D0F3D-614D-44A1-8966-6960E98792AB</title>
    <defs>
        <polygon id="path-1" points="0 0 46 0 46 27 0 27"></polygon>
        <polygon id="path-3" points="0 0 46 0 46 26 0 26"></polygon>
    </defs>
    <g id="Page-1" stroke="none" stroke-width="1" fill="none" fill-rule="evenodd">
        <g id="Gul" transform="translate(-576.000000, -368.000000)">
            <g id="Group" transform="translate(576.041379, 368.000000)">
                <ellipse id="Oval" fill="#CAE4BD" cx="491" cy="343" rx="491" ry="135"></ellipse>
                <g id="Group-35" transform="translate(469.958621, 0.000000)">
                    <path d="M316.942557,153.117121 C316.269427,145.131452 311.799206,137.532542 312.771948,129.578935 C314.67349,114.014395 335.951985,105.605897 336,89.9251285 C336.035876,77.8855049 323.528045,70.0260835 318.314783,59.1808034 C312.370467,46.8145389 316.317365,31.1938888 309.594056,19.2344225 C303.158376,7.78595886 289.10654,3.34925337 276.209212,1.03270795 C268.401304,-0.368040531 259.506802,-1.09546785 253.362744,3.93840938 C245.149361,10.6676131 246.467657,23.2943888 244.09073,33.6627331 C241.040672,46.9688417 231.229355,57.4474022 223.293613,68.5411699 C215.357871,79.6329336 208.86826,93.8207723 213.608133,106.619886 C216.897881,115.505321 224.941483,121.735545 229.483612,130.047855 C234.155572,138.596629 234.810726,148.702459 237.493258,158.074849 C240.405493,168.252819 246.146073,178.044031 255.162418,183.550836 C273.153162,194.542404 319.031857,177.881713 316.942557,153.117121" id="Fill-1" fill="#70AA55"></path>
                    <path d="M277.285406,288 C276.339797,288 275.57297,287.290045 275.570816,286.412101 L275,38.5958983 C274.997851,37.7159544 275.762523,37 276.710286,37 L276.714594,37 C277.660203,37 278.42703,37.7099547 278.429184,38.5878988 L279,286.404102 C279.002149,287.284046 278.235323,288 277.28756,288 L277.285406,288 Z" id="Fill-3" fill="#115B33"></path>
                    <path d="M275.588607,98 L243.579017,71.3437496 C242.899029,70.7785709 242.804753,69.7652862 243.366396,69.0810162 C243.930044,68.3987648 244.934982,68.301877 245.61497,68.8670557 L275.347904,93.6279389 L306.256274,61.489455 C306.870069,60.8516104 307.881025,60.8354624 308.512872,61.4511035 C309.148731,62.0687631 309.162772,63.0860848 308.550983,63.7239294 L275.588607,98 Z" id="Fill-5" fill="#115B33"></path>
                    <path d="M275.586611,146 L241.568071,117.531266 C240.895681,116.969855 240.807892,115.970463 241.370544,115.299556 C241.937187,114.63064 242.936794,114.541053 243.609184,115.102465 L275.239443,141.574406 L310.21569,101.540995 C310.794304,100.884024 311.797901,100.816337 312.456324,101.387702 C313.116743,101.96504 313.18458,102.964432 312.609956,103.625384 L275.586611,146 Z" id="Fill-7" fill="#115B33"></path>
                    <path d="M177.986729,228.380728 L277.829963,231.665035 L275.355501,172.010143 L179.35677,172.010143 L177.986729,228.380728 Z M177.800995,236 L173.808703,235.901751 L173.896578,232.258536 L68,228.773722 L70.2088416,168.320811 L74.201133,168.469187 L72.1380829,224.897918 L173.994438,228.250398 L175.458345,168 L279.186024,168 L282,235.815533 L177.888869,232.388866 L177.800995,236 Z" id="Fill-9" fill="#111111"></path>
                    <polygon id="Fill-11" fill="#EC6717" points="46.0284101 162 310.204884 166.4257 313 214 41 208.467875"></polygon>
                    <polygon id="Fill-13" fill="#F4B373" points="309.982035 178 44 172.962963 44.0179653 172 310 177.037037"></polygon>
                    <polygon id="Fill-15" fill="#F4B373" points="309.982035 192 44 186.963284 44.0179653 186 310 191.036716"></polygon>
                    <polygon id="Fill-17" fill="#F4B373" points="309.982035 205 44 199.963284 44.0179653 199 310 204.036716"></polygon>
                    <polygon id="Fill-19" fill="#111111" points="292.209914 294 281.402261 234.105042 66.5466058 229.926978 56.7960929 286.567867 53 285.911027 63.3151217 226 284.629741 230.300594 296 293.31303"></polygon>
                    <polygon id="Fill-21" fill="#111111" points="325.206999 317 312.645556 238.08351 43.4263954 234.901151 27.7490586 304.878925 24 304.031634 40.3624338 231 315.929228 234.260664 329 316.389629"></polygon>
                    <path d="M33,218 L33,235.100987 L321.352347,237 C321.352347,237 329.040571,222.433662 326.476499,222.433662 C323.914423,222.433662 33,218 33,218" id="Fill-23" fill="#EC6717"></path>
                    <g id="Group-27" transform="translate(0.000000, 282.000000)">
                        <mask id="mask-2" fill="white">
                            <use xlink:href="#path-1"></use>
                        </mask>
                        <g id="Clip-26"></g>
                        <path d="M8.71797623,14.8490213 C9.23181376,12.4899403 8.72600494,10.0463909 8.59353121,7.63703103 C8.45905029,5.22566005 8.81833512,2.55283934 10.6087378,0.935873306 C11.4658027,0.161579871 12.7483893,-0.29092928 13.7881075,0.211858665 C14.8077538,0.706602003 15.2413042,1.90524846 15.5785101,2.98925927 C16.3713453,5.52532167 17.1621734,8.06138406 17.9550087,10.5954353 C19.5426863,9.84527569 19.3459829,7.47010544 20.4158087,6.0743661 C21.852948,4.2019838 25.0925331,4.96622147 26.4252991,6.91502755 C27.7600724,8.86383362 27.7460222,11.4039183 27.6837996,13.7650105 C29.4581449,11.1183348 32.1858995,9.12930566 35.2448386,8.25244348 C37.5731649,11.2490596 38.5065026,15.2874524 37.7277176,19.0040609 C38.4844236,16.5846453 42.1856595,16.3272179 44.0021555,18.090998 C45.8206586,19.8547781 46.1257496,22.6583237 45.9611611,25.1883526 C45.927039,25.7052186 45.8567878,26.2703523 45.4794384,26.624315 C45.0559239,27.0265453 44.4035911,27.0185007 43.8215095,26.9863223 C32.3645384,26.346776 17.6599535,27.9959205 6.65459741,24.8806464 C2.91121074,23.8207694 -1.01282194,21.7633611 0.235642678,17.0451991 C1.63865999,11.7397807 9.155541,13.9721591 8.71797623,14.8490213" id="Fill-25" fill="#70AA55" mask="url(#mask-2)"></path>
                    </g>
                    <g id="Group-30" transform="translate(300.000000, 294.000000)">
                        <mask id="mask-4" fill="white">
                            <use xlink:href="#path-3"></use>
                        </mask>
                        <g id="Clip-29"></g>
                        <path d="M8.29228146,15.1075498 C8.59091389,12.7215112 7.87817784,10.3414828 7.53375512,7.9614544 C7.18933239,5.58142598 7.30878536,2.89888553 8.93334573,1.13389813 C9.71178091,0.290470546 10.9401556,-0.272482304 12.0112505,0.136209445 C13.0624367,0.534884239 13.5959933,1.68683402 14.0260239,2.73060069 C15.0314198,5.17674102 16.0368156,7.62288134 17.0422114,10.0670183 C18.5453279,9.18151948 18.1431696,6.84155888 19.0768936,5.36305637 C20.3311498,3.37569257 23.5981885,3.84648944 25.0873688,5.66156162 C26.57854,7.4766338 26.7875827,9.99890298 26.9329172,12.3468771 C28.4519608,9.56416715 30.9744093,7.34841678 33.918925,6.20648395 C36.483182,8.97116343 37.7613288,12.8958063 37.3193528,16.6521642 C37.8529094,14.1839866 41.4862705,13.6009999 43.4373357,15.1896889 C45.3903917,16.7783779 45.9358936,19.5330404 45.9976109,22.057313 C46.0095562,22.5741878 45.9896474,23.1391441 45.6492064,23.5257985 C45.266957,23.9605343 44.61992,24.0106191 44.042564,24.030653 C32.6666597,24.4153041 18.2845223,27.356282 7.13756944,25.2427045 C3.34692857,24.5254906 -0.710490587,22.8326253 0.105771364,18.0385108 C1.02555922,12.6513926 8.6466586,14.1980104 8.29228146,15.1075498" id="Fill-28" fill="#70AA55" mask="url(#mask-4)"></path>
                    </g>
                    <path d="M48.1871289,281.120858 C50.1657934,280.073862 52.7774714,280.623906 54.2345966,282.395092 C54.2047375,280.122707 56.7666502,278.576636 58.8388734,279.10332 C60.9110965,279.632127 62.4140057,281.558345 63.403338,283.571635 C63.7297977,284.236361 64.0721823,284.979665 64.71913,285.272738 C65.3202937,285.544575 66.0150159,285.344945 66.614189,285.068861 C69.860871,283.573759 73.107553,279.863613 76.216883,281.65816 C77.97459,282.6733 78.7947206,285.215398 80.733573,285.739958 C81.8065108,286.028784 82.9172702,285.597668 83.9882174,285.298223 C85.9031825,284.765168 87.999293,284.667477 89.8107464,285.514843 C91.6241905,286.362209 93.0653908,288.30754 92.9977102,290.418522 C90.097394,292.085646 86.6317451,292.055913 83.3392791,291.966717 C73.2170364,291.690633 63.0967843,291.240403 52.9864853,290.616028 C48.4279925,290.335697 40.5630994,285.155934 48.1871289,281.120858" id="Fill-31" fill="#70AA55"></path>
                    <path d="M268.187129,286.119166 C270.165793,285.072007 272.777471,285.622137 274.234597,287.393599 C274.204737,285.12086 276.76665,283.576673 278.838873,284.103438 C280.911097,284.630204 282.414006,286.556721 283.403338,288.570325 C283.729798,289.235154 284.072182,289.978573 284.721121,290.271692 C285.320294,290.543571 286.015016,290.34391 286.614189,290.067783 C289.860871,288.572449 293.107553,284.861726 296.216883,286.656552 C297.976581,287.67185 298.794721,290.214343 300.733573,290.738984 C301.806511,291.027856 302.91727,290.596673 303.988217,290.297181 C305.903183,289.764043 307.999293,289.666337 309.810746,290.513835 C311.62419,291.361332 313.065391,293.306966 312.99771,295.418276 C310.097394,297.085659 306.633736,297.055922 303.339279,296.966712 C293.217036,296.690585 283.098775,296.240285 272.986485,295.617937 C268.427992,295.335438 260.563099,290.154869 268.187129,286.119166" id="Fill-33" fill="#70AA55"></path>
                </g>
            </g>
        </g>
    </g>
</svg>